<svg width="3894" height="1626" xmlns="http://www.w3.org/2000/svg" xmlns:xlink="http://www.w3.org/1999/xlink" xml:space="preserve" overflow="hidden"><g transform="translate(-152 -343)"><text font-family="Arial,Arial_MSFontService,sans-serif" font-weight="400" font-size="128" transform="matrix(1 0 0 1 229.293 674)">ieder </text><text fill="#0070C0" font-family="Arial,Arial_MSFontService,sans-serif" font-weight="700" font-size="128" transform="matrix(1 0 0 1 551.272 674)">model</text><text font-family="Arial,Arial_MSFontService,sans-serif" font-weight="400" font-size="128" transform="matrix(1 0 0 1 964.918 674)">heeft een </text><text fill="#0070C0" font-family="Arial,Arial_MSFontService,sans-serif" font-weight="700" font-size="128" transform="matrix(1 0 0 1 1536.69 674)">toepassingsbereik</text><text font-family="Arial,Arial_MSFontService,sans-serif" font-weight="400" font-size="110" transform="matrix(1 0 0 1 392.46 1032)">gebaseerd op</text><text fill="#0070C0" font-family="Arial,Arial_MSFontService,sans-serif" font-weight="400" font-size="110" transform="matrix(1 0 0 1 392.46 1196)">•</text><text fill="#0070C0" font-family="Arial,Arial_MSFontService,sans-serif" font-weight="700" font-size="110" transform="matrix(1 0 0 1 474.96 1196)">theoretische basis </text><text font-family="Arial,Arial_MSFontService,sans-serif" font-weight="400" font-size="110" transform="matrix(1 0 0 1 1471.26 1196)">en geldigheid daarvan</text><text fill="#0070C0" font-family="Arial,Arial_MSFontService,sans-serif" font-weight="400" font-size="110" transform="matrix(1 0 0 1 392.46 1361)">•</text><text fill="#0070C0" font-family="Arial,Arial_MSFontService,sans-serif" font-weight="700" font-size="110" transform="matrix(1 0 0 1 474.96 1361)">validatie</text><text font-family="Arial,Arial_MSFontService,sans-serif" font-weight="400" font-size="110" transform="matrix(1 0 0 1 945.324 1361)">met empirische gegevens</text><text fill="#0070C0" font-family="Arial,Arial_MSFontService,sans-serif" font-weight="400" font-size="110" transform="matrix(1 0 0 1 392.46 1526)">•</text><text fill="#0070C0" font-family="Arial,Arial_MSFontService,sans-serif" font-weight="700" font-size="110" transform="matrix(1 0 0 1 474.96 1526)">geschiktheid</text><text font-family="Arial,Arial_MSFontService,sans-serif" font-weight="400" font-size="110" transform="matrix(1 0 0 1 1177.36 1526)">voor toepassing </text><text font-family="Arial,Arial_MSFontService,sans-serif" font-weight="400" font-size="92" transform="matrix(1 0 0 1 722.46 1660)">(</text><text fill="#0070C0" font-family="Arial,Arial_MSFontService,sans-serif" font-weight="400" font-size="92" transform="matrix(1 0 0 1 752.824 1660)">onzekerheid</text><text font-family="Arial,Arial_MSFontService,sans-serif" font-weight="400" font-size="92" transform="matrix(1 0 0 1 1277.62 1660)">is hiervan </text><text fill="#0070C0" font-family="Arial,Arial_MSFontService,sans-serif" font-weight="400" font-size="92" transform="matrix(1 0 0 1 1695.27 1660)">het belangrijkste </text><text font-family="Arial,Arial_MSFontService,sans-serif" font-weight="400" font-size="92" transform="matrix(1 0 0 1 2387.93 1660)">onderdeel) </text><text fill="#0070C0" font-family="Arial,Arial_MSFontService,sans-serif" font-weight="700" font-size="128" transform="matrix(1 0 0 1 3059.33 1418)">expertoordeel</text><path d="M2905 1064C2922.4 1064 2936.5 1066.35 2936.5 1069.25L2936.5 1386.75C2936.5 1389.65 2950.6 1392 2968 1392 2950.6 1392 2936.5 1394.35 2936.5 1397.25L2936.5 1714.75C2936.5 1717.65 2922.4 1720 2905 1720" stroke="#156082" stroke-width="13.75" stroke-miterlimit="8" fill="none" fill-rule="evenodd"/><path d="M2774.19 632.283 2778.26 632.33 2795.92 632.942 2813.47 633.956 2830.89 635.367 2848.2 637.171 2865.38 639.363 2882.42 641.938 2899.37 644.898 2932.71 651.911 2965.47 660.388 2997.56 670.282 3028.96 681.555 3059.61 694.168 3089.47 708.083 3118.5 723.262 3146.65 739.666 3173.89 757.258 3200.18 775.999 3225.46 795.851 3249.69 816.776 3272.85 838.736 3294.87 861.692 3315.72 885.607 3335.36 910.442 3353.74 936.16 3370.82 962.721 3386.56 990.087 3400.91 1018.22 3413.84 1047.08 3425.27 1076.59 3430.45 1091.66 3435.23 1106.83 3439.61 1122.17 3443.6 1137.65 3447.2 1153.27 3450.38 1169.03 3453.16 1184.93 3455.52 1200.95 3457.45 1217.09 3458.96 1233.36 3460.04 1249.74 3460.68 1266.13 3446.94 1266.66 3446.3 1250.36 3446.31 1250.55 3445.25 1234.35 3445.26 1234.54 3443.77 1218.46 3443.79 1218.64 3441.87 1202.68 3441.9 1202.86 3439.57 1187.02 3439.6 1187.2 3436.85 1171.49 3436.89 1171.67 3433.74 1156.08 3433.77 1156.26 3430.22 1140.82 3430.27 1140.99 3426.32 1125.69 3426.37 1125.86 3422.03 1110.7 3422.08 1110.88 3417.36 1095.87 3417.42 1096.04 3412.31 1081.18 3412.4 1081.44 3401.08 1052.22 3401.22 1052.54 3388.44 1024 3388.59 1024.31 3374.39 996.489 3374.56 996.793 3358.99 969.723 3359.17 970.015 3342.27 943.739 3342.46 944.018 3324.27 918.573 3324.47 918.84 3305.04 894.265 3305.25 894.519 3284.61 870.852 3284.83 871.093 3263.04 848.372 3263.27 848.6 3240.35 826.863 3240.59 827.079 3216.59 806.364 3216.84 806.567 3191.81 786.912 3192.06 787.102 3166.04 768.545 3166.3 768.723 3139.33 751.302 3139.59 751.467 3111.71 735.221 3111.99 735.374 3083.24 720.34 3083.52 720.48 3053.94 706.697 3054.23 706.823 3023.87 694.33 3024.16 694.443 2993.06 683.276 2993.36 683.375 2961.57 673.574 2961.87 673.66 2929.41 665.262 2929.72 665.334 2896.65 658.377 2896.89 658.422 2880.14 655.496 2880.29 655.522 2863.4 652.971 2863.56 652.992 2846.54 650.821 2846.7 650.839 2829.55 649.051 2829.71 649.066 2812.44 647.667 2812.59 647.678 2795.21 646.673 2795.36 646.681 2777.87 646.074 2778.03 646.078 2774.03 646.032ZM2811.55 669.592 2760.47 639 2812.24 609.594C2815.54 607.719 2819.74 608.875 2821.61 612.177 2823.49 615.479 2822.33 619.675 2819.03 621.55L2777.51 645.135 2777.64 633.259 2818.61 657.796C2821.87 659.747 2822.93 663.969 2820.98 667.227 2819.03 670.484 2814.81 671.543 2811.55 669.592Z" fill="#156082"/></g></svg>