<svg width="3930" height="475" xmlns="http://www.w3.org/2000/svg" xmlns:xlink="http://www.w3.org/1999/xlink" xml:space="preserve" overflow="hidden"><g transform="translate(-223 -683)"><text fill="#0070C0" font-family="Arial,Arial_MSFontService,sans-serif" font-weight="400" font-size="119" transform="matrix(1 0 0 1 295.135 836)">Theoretisch </text><text font-family="Arial,Arial_MSFontService,sans-serif" font-weight="400" font-size="73" transform="matrix(1 0 0 1 1055.23 800)">•</text><text font-family="Arial,Arial_MSFontService,sans-serif" font-style="italic" font-weight="400" font-size="73" transform="matrix(1 0 0 1 1158.36 800)">aannames</text><text font-family="Arial,Arial_MSFontService,sans-serif" font-weight="400" font-size="73" transform="matrix(1 0 0 1 1500.39 800)">: onvermijdelijke modelkeuzes </text><text font-family="Arial,Arial_MSFontService,sans-serif" font-weight="400" font-size="73" transform="matrix(1 0 0 1 1055.23 888)">•</text><text font-family="Arial,Arial_MSFontService,sans-serif" font-style="italic" font-weight="400" font-size="73" transform="matrix(1 0 0 1 1158.36 888)">versimpelingen</text><text font-family="Arial,Arial_MSFontService,sans-serif" font-weight="400" font-size="73" transform="matrix(1 0 0 1 1650.49 888)">: linearisatie &amp; </text><text font-family="Arial,Arial_MSFontService,sans-serif" font-weight="400" font-size="73" transform="matrix(1 0 0 1 1158.36 976)">parameterisatie</text><text fill="#0070C0" font-family="Arial,Arial_MSFontService,sans-serif" font-weight="400" font-size="83" transform="matrix(1 0 0 1 2981.87 792)">Inherent aan modellering </text><text fill="#0070C0" font-family="Arial,Arial_MSFontService,sans-serif" font-weight="400" font-size="83" transform="matrix(1 0 0 1 3916.87 792)">–</text><text fill="#0070C0" font-family="Arial,Arial_MSFontService,sans-serif" font-weight="400" font-size="83" transform="matrix(1 0 0 1 2981.87 891)">keuzes leiden niet tot </text><text fill="#0070C0" font-family="Arial,Arial_MSFontService,sans-serif" font-weight="400" font-size="83" transform="matrix(1 0 0 1 2981.87 990)">begrenzing bij lage </text><text fill="#0070C0" font-family="Arial,Arial_MSFontService,sans-serif" font-weight="400" font-size="83" transform="matrix(1 0 0 1 2981.87 1089)">depositiewaarden.</text><path d="M2729.5 701.5C2750.49 701.5 2767.5 704.336 2767.5 707.833L2767.5 907.667C2767.5 911.165 2784.51 914 2805.5 914 2784.51 914 2767.5 916.836 2767.5 920.333L2767.5 1120.17C2767.5 1123.66 2750.49 1126.5 2729.5 1126.5" stroke="#156082" stroke-width="9.16667" stroke-miterlimit="8" fill="none" fill-rule="evenodd"/></g></svg>